<svg width="157" height="38" viewBox="0 0 157 38" fill="none" xmlns="http://www.w3.org/2000/svg">
<g clip-path="url(#clip0_1533_687)">
<path d="M62.9938 0.557434H58.402V18.7445H62.9938V0.557434Z" fill="white"/>
<path d="M77.3001 10.1271H76.7925L73.1005 0.557434H66.7089V18.7213H70.9084V5.20291L74.8311 15.0745H79.0077L82.9303 5.08677V18.7213H87.4991V0.557434H80.9921L77.3001 10.1271Z" fill="white"/>
<path d="M89.8066 4.57577H94.7677V18.7213H99.3596V4.57577H104.321V0.557434H89.8066V4.57577Z" fill="white"/>
<path d="M111.081 11.3814H117.704V7.59533H111.081V4.3435H118.073V0.557434H111.081H110.597H106.628V18.7213H110.597H111.081H118.212V14.9352H111.081V11.3814Z" fill="white"/>
<path d="M132.449 14.0526C131.641 14.61 130.672 14.8888 129.518 14.8888C128.78 14.8888 128.111 14.7726 127.534 14.5171C126.957 14.2848 126.472 13.9132 126.057 13.4487C125.665 12.9841 125.342 12.4267 125.134 11.7763C124.926 11.1259 124.834 10.4059 124.834 9.59291C124.834 8.77995 124.926 8.0599 125.134 7.40954C125.342 6.75917 125.642 6.20171 126.034 5.76039C126.426 5.29584 126.911 4.94743 127.464 4.69193C128.041 4.43643 128.664 4.32029 129.38 4.32029C130.141 4.32029 130.81 4.45966 131.41 4.71516C132.01 4.97066 132.495 5.3423 132.864 5.80685C133.233 6.27139 133.487 6.82885 133.602 7.45599H138.194C138.056 5.96944 137.617 4.6687 136.833 3.55379C136.048 2.43888 135.033 1.55623 133.764 0.929095C132.495 0.301956 131.018 0 129.38 0C127.834 0 126.472 0.255501 125.319 0.789731C124.165 1.32396 123.196 2.04401 122.434 2.92665C121.673 3.83252 121.096 4.8313 120.727 5.92298C120.357 7.0379 120.173 8.15281 120.173 9.29095V9.84841C120.173 10.8704 120.357 11.9389 120.727 13.0306C121.096 14.1222 121.65 15.1443 122.411 16.0734C123.173 17.0024 124.142 17.7689 125.295 18.3496C126.472 18.9303 127.88 19.209 129.495 19.209C131.249 19.209 132.772 18.8839 134.041 18.2103C135.333 17.5367 136.348 16.6308 137.11 15.5159C137.871 14.3778 138.333 13.1467 138.471 11.7763H133.879C133.718 12.7286 133.233 13.4719 132.425 14.0526H132.449Z" fill="white"/>
<path d="M152.408 0.557434V7.54888H145.532V0.557434H140.917V18.7213H145.532V11.5904H152.408V18.7213H157V0.557434H152.408Z" fill="white"/>
<path d="M16.7522 28.6393H26.0974L24.113 38H33.4813L35.4427 28.6393H26.1205L28.0819 19.2787H18.7366L16.7522 28.6393Z" fill="white"/>
<path d="M50.7181 0.557434H41.396H41.3729H32.0507H22.7055L20.7211 9.91807H30.0663L28.0819 19.2787H37.4502L39.4346 9.91807H48.7568L50.7181 0.557434Z" fill="white"/>
<path d="M5.42249 38H14.7677L16.7521 28.6393H7.40691L5.42249 38Z" fill="white"/>
<path d="M9.36831 19.2787L11.3297 9.91807L13.3141 0.557434H3.94577L1.98442 9.91807L0 19.2787H9.36831Z" fill="white"/>
<path d="M64.0783 37.1174C62.6246 37.1174 61.4939 36.7922 60.6863 36.165C59.8787 35.5379 59.4634 34.6785 59.4403 33.5868H61.3324C61.3555 34.0281 61.5863 34.423 62.0016 34.8179C62.4169 35.2127 63.1092 35.3985 64.1014 35.3985C65.0013 35.3985 65.6705 35.2127 66.155 34.8643C66.6396 34.5159 66.8703 34.0746 66.8703 33.5403C66.8703 33.0758 66.6857 32.7274 66.3396 32.4487C65.9935 32.1932 65.4166 32.0073 64.6552 31.9377L63.4322 31.8215C62.3708 31.7054 61.517 31.3802 60.8479 30.8692C60.1787 30.3582 59.8557 29.6149 59.8557 28.6394C59.8557 27.9193 60.0402 27.3154 60.4094 26.8044C60.7786 26.2934 61.2632 25.8985 61.9093 25.6198C62.5554 25.3411 63.2938 25.2017 64.1245 25.2017C65.3705 25.2017 66.4089 25.4804 67.1703 26.0379C67.9318 26.5954 68.3471 27.4315 68.3933 28.5465H66.5012C66.5012 28.1051 66.2935 27.7103 65.8781 27.4083C65.4859 27.0831 64.8859 26.9438 64.1014 26.9438C63.3169 26.9438 62.74 27.1064 62.3246 27.4316C61.9093 27.7567 61.7247 28.1516 61.7247 28.6626C61.7247 29.0807 61.8631 29.4291 62.1631 29.6846C62.4631 29.9401 62.9246 30.1027 63.5707 30.1724L64.7936 30.2885C65.9935 30.4047 66.9626 30.7531 67.678 31.2873C68.3933 31.8215 68.7625 32.588 68.7625 33.5636C68.7625 34.2604 68.5548 34.8875 68.1625 35.4218C67.7703 35.956 67.2165 36.3741 66.5242 36.676C65.832 36.978 65.0244 37.1174 64.1245 37.1174H64.0783Z" fill="white"/>
<path d="M76.7694 37.1638C75.8003 37.1638 74.9465 37.0012 74.2081 36.6528C73.4698 36.3044 72.8467 35.8631 72.3391 35.3056C71.8315 34.7482 71.4392 34.121 71.1854 33.4474C70.9315 32.7506 70.7931 32.0538 70.7931 31.3338V30.9621C70.7931 30.2421 70.9315 29.5452 71.1854 28.8484C71.4392 28.1516 71.8315 27.5245 72.3622 26.967C72.8698 26.4096 73.5159 25.9682 74.2543 25.643C74.9927 25.3179 75.8464 25.1553 76.7925 25.1553C77.7386 25.1553 78.5923 25.3179 79.3307 25.643C80.0691 25.9682 80.6921 26.4096 81.2228 26.967C81.7305 27.5245 82.1227 28.1516 82.3996 28.8484C82.6535 29.5452 82.7919 30.2421 82.7919 30.9621V31.3338C82.7919 32.0538 82.6535 32.7506 82.3996 33.4474C82.1458 34.1443 81.7536 34.7482 81.2459 35.3056C80.7383 35.8631 80.1153 36.3044 79.3769 36.6528C78.6385 37.0012 77.7847 37.1638 76.8156 37.1638H76.7694ZM76.7694 35.3521C77.6001 35.3521 78.3154 35.1663 78.9154 34.7946C79.5153 34.423 79.9537 33.912 80.2768 33.2849C80.5998 32.6577 80.7383 31.9377 80.7383 31.1479C80.7383 30.3582 80.5767 29.6382 80.2537 29.011C79.9307 28.3839 79.4692 27.8729 78.8923 27.5245C78.3154 27.1761 77.6001 26.967 76.7694 26.967C75.9387 26.967 75.2465 27.1528 74.6466 27.5245C74.0466 27.8961 73.5851 28.3839 73.2621 29.011C72.939 29.6382 72.7775 30.3582 72.7775 31.1479C72.7775 31.9377 72.939 32.6345 73.239 33.2849C73.562 33.912 74.0005 34.423 74.6004 34.7946C75.2004 35.1663 75.9157 35.3521 76.7463 35.3521H76.7694Z" fill="white"/>
<path d="M84.3379 23.0183V21.4156H87.8914V23.0183H84.3379ZM85.8839 36.7922V21.4389H87.8914V36.7922H85.8839Z" fill="white"/>
<path d="M95.5983 37.1174C94.283 37.1174 93.2677 36.6761 92.5524 35.8167C91.8371 34.9573 91.491 33.6798 91.491 32.0538V25.527H93.4985V32.4487C93.4985 33.3314 93.7292 34.0282 94.2138 34.5159C94.6983 35.0037 95.3214 35.2592 96.129 35.2592C96.9366 35.2592 97.6519 34.9805 98.1826 34.4463C98.7133 33.912 98.9672 33.1688 98.9672 32.2164V25.5037H100.975V36.769H99.3825V31.9377H99.6363C99.6363 33.0526 99.4979 33.9817 99.1979 34.7482C98.8979 35.5147 98.4595 36.0954 97.8826 36.4903C97.3058 36.8851 96.5674 37.0942 95.6675 37.0942H95.5752L95.5983 37.1174Z" fill="white"/>
<path d="M103.236 27.0599V25.5502H110.92V27.0599H103.236ZM109.212 36.9084C108.382 36.9084 107.643 36.7922 107.043 36.5599C106.443 36.3277 105.982 35.9096 105.636 35.3289C105.313 34.7482 105.151 33.9585 105.151 32.9597V22.1357H107.066V33.2152C107.066 33.8191 107.228 34.2837 107.551 34.6088C107.874 34.934 108.335 35.0966 108.935 35.0966H110.897V36.9084H109.189H109.212Z" fill="white"/>
<path d="M112.604 27.1528V25.5502H116.319V27.1528H112.604ZM114.889 23.7384C114.45 23.7384 114.104 23.6223 113.897 23.39C113.689 23.1577 113.574 22.8558 113.574 22.4841C113.574 22.1125 113.689 21.8105 113.897 21.5783C114.104 21.346 114.45 21.2299 114.889 21.2299C115.327 21.2299 115.673 21.346 115.881 21.5783C116.089 21.8105 116.204 22.1125 116.204 22.4841C116.204 22.8558 116.089 23.1577 115.881 23.39C115.673 23.6223 115.327 23.7384 114.889 23.7384ZM114.335 36.7922V25.5502H116.342V36.7922H114.335Z" fill="white"/>
<path d="M125.365 37.1638C124.396 37.1638 123.542 37.0012 122.803 36.6528C122.065 36.3044 121.442 35.8631 120.934 35.3056C120.427 34.7482 120.034 34.121 119.781 33.4474C119.527 32.7506 119.388 32.0538 119.388 31.3338V30.9621C119.388 30.2421 119.527 29.5452 119.781 28.8484C120.034 28.1516 120.427 27.5245 120.957 26.967C121.465 26.4096 122.111 25.9682 122.85 25.643C123.588 25.3179 124.442 25.1553 125.388 25.1553C126.334 25.1553 127.188 25.3179 127.926 25.643C128.664 25.9682 129.287 26.4096 129.818 26.967C130.326 27.5245 130.718 28.1516 130.995 28.8484C131.249 29.5452 131.387 30.2421 131.387 30.9621V31.3338C131.387 32.0538 131.249 32.7506 130.995 33.4474C130.741 34.1443 130.349 34.7482 129.841 35.3056C129.333 35.8631 128.71 36.3044 127.972 36.6528C127.234 37.0012 126.38 37.1638 125.411 37.1638H125.365ZM125.365 35.3521C126.195 35.3521 126.911 35.1663 127.511 34.7946C128.111 34.423 128.549 33.912 128.872 33.2849C129.195 32.6577 129.333 31.9377 129.333 31.1479C129.333 30.3582 129.172 29.6382 128.849 29.011C128.526 28.3839 128.064 27.8729 127.488 27.5245C126.911 27.1761 126.195 26.967 125.365 26.967C124.534 26.967 123.842 27.1528 123.242 27.5245C122.642 27.8961 122.18 28.3839 121.857 29.011C121.534 29.6382 121.373 30.3582 121.373 31.1479C121.373 31.9377 121.534 32.6345 121.834 33.2849C122.157 33.912 122.596 34.423 123.196 34.7946C123.796 35.1663 124.511 35.3521 125.342 35.3521H125.365Z" fill="white"/>
<path d="M134.341 36.7922V25.5502H135.933V30.3815H135.679C135.679 29.2665 135.841 28.3374 136.141 27.5709C136.44 26.8044 136.902 26.2238 137.502 25.8289C138.125 25.434 138.886 25.225 139.832 25.225H139.925C141.332 25.225 142.371 25.6663 143.04 26.5489C143.709 27.4316 144.055 28.7091 144.055 30.3815V36.7922H142.048V29.9634C142.048 29.1039 141.794 28.3839 141.309 27.8729C140.825 27.3387 140.156 27.0832 139.302 27.0832C138.448 27.0832 137.71 27.3619 137.179 27.8961C136.625 28.4536 136.371 29.1736 136.371 30.0795V36.7922H134.364H134.341Z" fill="white"/>
<path d="M151.393 37.1174C149.939 37.1174 148.809 36.7922 148.001 36.165C147.193 35.5379 146.778 34.6785 146.755 33.5868H148.647C148.67 34.0281 148.901 34.423 149.316 34.8179C149.732 35.2127 150.424 35.3985 151.416 35.3985C152.316 35.3985 152.985 35.2127 153.47 34.8643C153.954 34.5159 154.185 34.0746 154.185 33.5403C154.185 33.0758 154 32.7274 153.654 32.4487C153.308 32.1932 152.731 32.0073 151.97 31.9377L150.747 31.8215C149.685 31.7054 148.832 31.3802 148.162 30.8692C147.493 30.3582 147.17 29.6149 147.17 28.6394C147.17 27.9193 147.355 27.3154 147.724 26.8044C148.093 26.2934 148.578 25.8985 149.224 25.6198C149.87 25.3411 150.608 25.2017 151.439 25.2017C152.685 25.2017 153.723 25.4804 154.485 26.0379C155.246 26.5954 155.662 27.4315 155.708 28.5465H153.816C153.816 28.1051 153.608 27.7103 153.193 27.4083C152.8 27.0831 152.201 26.9438 151.416 26.9438C150.631 26.9438 150.055 27.1064 149.639 27.4316C149.224 27.7567 149.039 28.1516 149.039 28.6626C149.039 29.0807 149.178 29.4291 149.478 29.6846C149.778 29.9401 150.239 30.1027 150.885 30.1724L152.108 30.2885C153.308 30.4047 154.277 30.7531 154.993 31.2873C155.708 31.8215 156.077 32.588 156.077 33.5636C156.077 34.2604 155.869 34.8875 155.477 35.4218C155.085 35.956 154.531 36.3741 153.839 36.676C153.147 36.978 152.339 37.1174 151.439 37.1174H151.393Z" fill="white"/>
</g>
<defs>
<clipPath id="clip0_1533_687">
<rect width="157" height="38" fill="white"/>
</clipPath>
</defs>
</svg>
