<svg width="733" height="176" viewBox="0 0 733 176" fill="none" xmlns="http://www.w3.org/2000/svg">
<g clip-path="url(#clip0_1459_621)">
<path d="M294.105 2.58191H272.667V86.8166H294.105V2.58191Z" fill="#121723"/>
<path d="M360.898 46.9047H358.528L341.291 2.58191H311.45V86.7091H331.057V24.0978L349.371 69.8191H368.87L387.184 23.5599V86.7091H408.515V2.58191H378.135L360.898 46.9047Z" fill="#121723"/>
<path d="M419.288 21.1932H442.45V86.7091H463.889V21.1932H487.051V2.58191H419.288V21.1932Z" fill="#121723"/>
<path d="M518.616 52.7139H549.534V35.1785H518.616V20.1174H551.258V2.58191H518.616H516.353H497.824V86.7091H516.353H518.616H551.905V69.1736H518.616V52.7139Z" fill="#121723"/>
<path d="M618.375 65.0856C614.604 67.6675 610.079 68.9584 604.693 68.9584C601.245 68.9584 598.121 68.4205 595.428 67.2372C592.735 66.1614 590.472 64.4401 588.533 62.2885C586.702 60.1369 585.193 57.555 584.224 54.5428C583.254 51.5306 582.823 48.1956 582.823 44.4303C582.823 40.665 583.254 37.3301 584.224 34.3178C585.193 31.3056 586.594 28.7237 588.425 26.6797C590.257 24.5281 592.519 22.9144 595.105 21.7311C597.798 20.5477 600.707 20.0098 604.046 20.0098C607.601 20.0098 610.726 20.6553 613.527 21.8386C616.328 23.022 618.59 24.7433 620.314 26.8949C622.037 29.0465 623.222 31.6284 623.761 34.533H645.199C644.553 27.6479 642.506 21.6235 638.843 16.4597C635.18 11.2958 630.44 7.20782 624.515 4.30318C618.59 1.39853 611.695 0 604.046 0C596.828 0 590.472 1.18337 585.086 3.6577C579.699 6.13203 575.174 9.46699 571.619 13.555C568.064 17.7506 565.371 22.3765 563.647 27.4328C561.924 32.5966 561.062 37.7604 561.062 43.0318V45.6137C561.062 50.3472 561.924 55.2958 563.647 60.3521C565.371 65.4083 567.957 70.1418 571.512 74.445C575.067 78.7482 579.591 82.2983 584.978 84.9878C590.472 87.6773 597.044 88.9682 604.585 88.9682C612.772 88.9682 619.883 87.4621 625.808 84.3423C631.841 81.2225 636.581 77.0269 640.136 71.8631C643.691 66.5917 645.846 60.89 646.492 54.5428H625.054C624.3 58.9535 622.037 62.3961 618.267 65.0856H618.375Z" fill="#121723"/>
<path d="M711.562 2.58191V34.9633H679.458V2.58191H657.912V86.7091H679.458V53.6822H711.562V86.7091H733V2.58191H711.562Z" fill="#121723"/>
<path d="M78.2125 132.645H121.843L112.579 176H156.317L165.474 132.645H121.951L131.108 89.291H87.4774L78.2125 132.645Z" fill="#B71313"/>
<path d="M236.792 2.58191H193.269H193.161H149.638H106.007L96.7422 45.9364H140.373L131.108 89.291H174.847L184.112 45.9364H227.635L236.792 2.58191Z" fill="#B71313"/>
<path d="M25.3167 176H68.9477L78.2125 132.645H34.5816L25.3167 176Z" fill="#B71313"/>
<path d="M43.7387 89.291L52.8958 45.9364L62.1606 2.58191H18.422L9.26484 45.9364L0 89.291H43.7387Z" fill="#B71313"/>
<path d="M299.168 171.912C292.381 171.912 287.102 170.406 283.332 167.501C279.561 164.597 277.622 160.616 277.514 155.56H286.348C286.456 157.604 287.533 159.433 289.473 161.262C291.412 163.09 294.644 163.951 299.276 163.951C303.478 163.951 306.602 163.09 308.864 161.477C311.126 159.863 312.204 157.819 312.204 155.345C312.204 153.193 311.342 151.579 309.726 150.289C308.11 149.105 305.417 148.244 301.862 147.922L296.152 147.384C291.196 146.846 287.21 145.34 284.086 142.973C280.962 140.606 279.454 137.164 279.454 132.645C279.454 129.311 280.315 126.513 282.039 124.147C283.763 121.78 286.025 119.951 289.042 118.66C292.058 117.369 295.505 116.724 299.384 116.724C305.201 116.724 310.049 118.015 313.604 120.597C317.159 123.178 319.098 127.051 319.314 132.215H310.48C310.48 130.171 309.51 128.342 307.571 126.944C305.74 125.438 302.939 124.792 299.276 124.792C295.613 124.792 292.92 125.545 290.981 127.051C289.042 128.557 288.18 130.386 288.18 132.753C288.18 134.689 288.826 136.303 290.227 137.487C291.627 138.67 293.782 139.423 296.798 139.746L302.508 140.284C308.11 140.822 312.635 142.435 315.974 144.91C319.314 147.384 321.038 150.934 321.038 155.452C321.038 158.68 320.068 161.584 318.237 164.059C316.405 166.533 313.82 168.469 310.588 169.868C307.356 171.267 303.585 171.912 299.384 171.912H299.168Z" fill="#121723"/>
<path d="M358.42 172.127C353.896 172.127 349.909 171.374 346.462 169.76C343.015 168.147 340.106 166.103 337.736 163.521C335.366 160.939 333.534 158.034 332.349 154.914C331.164 151.687 330.518 148.46 330.518 145.125V143.403C330.518 140.068 331.164 136.841 332.349 133.614C333.534 130.386 335.366 127.482 337.844 124.9C340.214 122.318 343.23 120.274 346.678 118.768C350.125 117.262 354.111 116.509 358.528 116.509C362.945 116.509 366.931 117.262 370.378 118.768C373.826 120.274 376.734 122.318 379.212 124.9C381.582 127.482 383.414 130.386 384.706 133.614C385.892 136.841 386.538 140.068 386.538 143.403V145.125C386.538 148.46 385.892 151.687 384.706 154.914C383.521 158.142 381.69 160.939 379.32 163.521C376.95 166.103 374.041 168.147 370.594 169.76C367.146 171.374 363.16 172.127 358.636 172.127H358.42ZM358.42 163.736C362.299 163.736 365.638 162.875 368.439 161.154C371.24 159.433 373.287 157.066 374.795 154.161C376.304 151.257 376.95 147.922 376.95 144.264C376.95 140.606 376.196 137.271 374.688 134.367C373.179 131.462 371.025 129.095 368.331 127.482C365.638 125.868 362.299 124.9 358.42 124.9C354.542 124.9 351.31 125.76 348.509 127.482C345.708 129.203 343.553 131.462 342.045 134.367C340.537 137.271 339.783 140.606 339.783 144.264C339.783 147.922 340.537 151.149 341.937 154.161C343.446 157.066 345.493 159.433 348.294 161.154C351.095 162.875 354.434 163.736 358.312 163.736H358.42Z" fill="#121723"/>
<path d="M393.756 106.611V99.1883H410.346V106.611H393.756ZM400.974 170.406V99.2958H410.346V170.406H400.974Z" fill="#121723"/>
<path d="M446.328 171.912C440.188 171.912 435.448 169.868 432.108 165.888C428.768 161.907 427.152 155.99 427.152 148.46V118.23H436.525V150.289C436.525 154.377 437.602 157.604 439.865 159.863C442.127 162.122 445.036 163.306 448.806 163.306C452.577 163.306 455.916 162.015 458.394 159.54C460.872 157.066 462.057 153.623 462.057 149.213V118.122H471.43V170.298H463.996V147.922H465.181C465.181 153.086 464.535 157.389 463.134 160.939C461.734 164.489 459.687 167.178 456.994 169.007C454.301 170.836 450.853 171.804 446.652 171.804H446.221L446.328 171.912Z" fill="#121723"/>
<path d="M481.987 125.33V118.337H517.862V125.33H481.987ZM509.89 170.944C506.011 170.944 502.564 170.406 499.763 169.33C496.962 168.254 494.807 166.318 493.191 163.628C491.683 160.939 490.929 157.281 490.929 152.655V102.523H499.871V153.839C499.871 156.636 500.625 158.787 502.133 160.293C503.641 161.799 505.796 162.553 508.597 162.553H517.754V170.944H509.782H509.89Z" fill="#121723"/>
<path d="M525.726 125.76V118.337H543.071V125.76H525.726ZM536.391 109.946C534.344 109.946 532.729 109.408 531.759 108.333C530.789 107.257 530.251 105.858 530.251 104.137C530.251 102.416 530.789 101.017 531.759 99.9413C532.729 98.8655 534.344 98.3276 536.391 98.3276C538.438 98.3276 540.054 98.8655 541.024 99.9413C541.993 101.017 542.532 102.416 542.532 104.137C542.532 105.858 541.993 107.257 541.024 108.333C540.054 109.408 538.438 109.946 536.391 109.946ZM533.806 170.406V118.337H543.178V170.406H533.806Z" fill="#121723"/>
<path d="M585.301 172.127C580.776 172.127 576.79 171.374 573.343 169.76C569.896 168.147 566.987 166.103 564.617 163.521C562.247 160.939 560.415 158.034 559.23 154.914C558.045 151.687 557.399 148.46 557.399 145.125V143.403C557.399 140.068 558.045 136.841 559.23 133.614C560.415 130.386 562.247 127.482 564.725 124.9C567.095 122.318 570.111 120.274 573.559 118.768C577.006 117.262 580.992 116.509 585.409 116.509C589.826 116.509 593.812 117.262 597.259 118.768C600.707 120.274 603.615 122.318 606.093 124.9C608.463 127.482 610.295 130.386 611.587 133.614C612.773 136.841 613.419 140.068 613.419 143.403V145.125C613.419 148.46 612.773 151.687 611.587 154.914C610.402 158.142 608.571 160.939 606.201 163.521C603.831 166.103 600.922 168.147 597.475 169.76C594.027 171.374 590.041 172.127 585.517 172.127H585.301ZM585.301 163.736C589.179 163.736 592.519 162.875 595.32 161.154C598.121 159.433 600.168 157.066 601.676 154.161C603.184 151.257 603.831 147.922 603.831 144.264C603.831 140.606 603.077 137.271 601.569 134.367C600.06 131.462 597.906 129.095 595.212 127.482C592.519 125.868 589.179 124.9 585.301 124.9C581.423 124.9 578.191 125.76 575.39 127.482C572.589 129.203 570.434 131.462 568.926 134.367C567.418 137.271 566.664 140.606 566.664 144.264C566.664 147.922 567.418 151.149 568.818 154.161C570.327 157.066 572.373 159.433 575.174 161.154C577.975 162.875 581.315 163.736 585.193 163.736H585.301Z" fill="#121723"/>
<path d="M627.208 170.406V118.337H634.642V140.714H633.457C633.457 135.55 634.211 131.247 635.611 127.697C637.012 124.147 639.166 121.457 641.967 119.628C644.876 117.8 648.431 116.831 652.848 116.831H653.279C659.851 116.831 664.699 118.875 667.823 122.963C670.947 127.051 672.563 132.968 672.563 140.714V170.406H663.19V138.778C663.19 134.797 662.005 131.462 659.743 129.095C657.481 126.621 654.356 125.438 650.37 125.438C646.384 125.438 642.937 126.729 640.459 129.203C637.874 131.785 636.689 135.12 636.689 139.315V170.406H627.316H627.208Z" fill="#121723"/>
<path d="M706.821 171.912C700.034 171.912 694.756 170.406 690.985 167.501C687.214 164.597 685.275 160.616 685.167 155.56H694.001C694.109 157.604 695.186 159.433 697.126 161.262C699.065 163.09 702.297 163.951 706.929 163.951C711.131 163.951 714.255 163.09 716.517 161.477C718.78 159.863 719.857 157.819 719.857 155.345C719.857 153.193 718.995 151.579 717.379 150.289C715.763 149.105 713.07 148.244 709.515 147.922L703.805 147.384C698.849 146.846 694.863 145.34 691.739 142.973C688.615 140.606 687.107 137.164 687.107 132.645C687.107 129.311 687.968 126.513 689.692 124.147C691.416 121.78 693.678 119.951 696.695 118.66C699.711 117.369 703.159 116.724 707.037 116.724C712.854 116.724 717.702 118.015 721.257 120.597C724.812 123.178 726.752 127.051 726.967 132.215H718.133C718.133 130.171 717.164 128.342 715.224 126.944C713.393 125.438 710.592 124.792 706.929 124.792C703.266 124.792 700.573 125.545 698.634 127.051C696.695 128.557 695.833 130.386 695.833 132.753C695.833 134.689 696.479 136.303 697.88 137.487C699.28 138.67 701.435 139.423 704.451 139.746L710.161 140.284C715.763 140.822 720.288 142.435 723.627 144.91C726.967 147.384 728.691 150.934 728.691 155.452C728.691 158.68 727.721 161.584 725.89 164.059C724.058 166.533 721.473 168.469 718.241 169.868C715.009 171.267 711.238 171.912 707.037 171.912H706.821Z" fill="#121723"/>
</g>
<defs>
<clipPath id="clip0_1459_621">
<rect width="733" height="176" fill="white"/>
</clipPath>
</defs>
</svg>
